<svg xmlns="http://www.w3.org/2000/svg" xmlns:xlink="http://www.w3.org/1999/xlink" width="1430" zoomAndPan="magnify" viewBox="0 0 1072.5 430.499987" height="574" preserveAspectRatio="xMidYMid meet" version="1.0"><defs><g/><clipPath id="10e420560b"><path d="M 0.371094 0 L 429.894531 0 L 429.894531 429.519531 L 0.371094 429.519531 Z M 0.371094 0 " clip-rule="nonzero"/></clipPath><clipPath id="4bbc016215"><path d="M 215.132812 0 C 96.523438 0 0.371094 96.152344 0.371094 214.761719 C 0.371094 333.367188 96.523438 429.519531 215.132812 429.519531 C 333.742188 429.519531 429.894531 333.367188 429.894531 214.761719 C 429.894531 96.152344 333.742188 0 215.132812 0 Z M 215.132812 0 " clip-rule="nonzero"/></clipPath><clipPath id="829e549c75"><path d="M 0.371094 0 L 429.894531 0 L 429.894531 429.519531 L 0.371094 429.519531 Z M 0.371094 0 " clip-rule="nonzero"/></clipPath><clipPath id="7c190a317a"><path d="M 215.132812 0 C 96.523438 0 0.371094 96.152344 0.371094 214.761719 C 0.371094 333.367188 96.523438 429.519531 215.132812 429.519531 C 333.742188 429.519531 429.894531 333.367188 429.894531 214.761719 C 429.894531 96.152344 333.742188 0 215.132812 0 Z M 215.132812 0 " clip-rule="nonzero"/></clipPath><clipPath id="98a6840ad0"><rect x="0" width="430" y="0" height="430"/></clipPath><clipPath id="01766421b2"><path d="M 0.371094 0 L 429.625 0 L 429.625 429.25 L 0.371094 429.25 Z M 0.371094 0 " clip-rule="nonzero"/></clipPath><clipPath id="78c476841e"><path d="M 215.125 0 C 96.519531 0 0.371094 96.148438 0.371094 214.753906 C 0.371094 333.359375 96.519531 429.507812 215.125 429.507812 C 333.734375 429.507812 429.882812 333.359375 429.882812 214.753906 C 429.882812 96.148438 333.734375 0 215.125 0 Z M 215.125 0 " clip-rule="nonzero"/></clipPath><clipPath id="8106f47463"><path d="M 64 54 L 348 54 L 348 388 L 64 388 Z M 64 54 " clip-rule="nonzero"/></clipPath><clipPath id="84f738e27f"><path d="M 20.808594 118.457031 L 282.660156 8.71875 L 409.484375 311.335938 L 147.628906 421.078125 Z M 20.808594 118.457031 " clip-rule="nonzero"/></clipPath><clipPath id="217c8b7906"><path d="M 20.808594 118.457031 L 282.660156 8.71875 L 409.484375 311.335938 L 147.628906 421.078125 Z M 20.808594 118.457031 " clip-rule="nonzero"/></clipPath><clipPath id="d4763b6718"><path d="M 109 90 L 312 90 L 312 347 L 109 347 Z M 109 90 " clip-rule="nonzero"/></clipPath><clipPath id="010bf01a8e"><path d="M 20.808594 118.457031 L 282.660156 8.71875 L 409.484375 311.335938 L 147.628906 421.078125 Z M 20.808594 118.457031 " clip-rule="nonzero"/></clipPath><clipPath id="ab2499b372"><path d="M 20.808594 118.457031 L 282.660156 8.71875 L 409.484375 311.335938 L 147.628906 421.078125 Z M 20.808594 118.457031 " clip-rule="nonzero"/></clipPath><clipPath id="f5ba6d43e4"><path d="M 117 82 L 322 82 L 322 342 L 117 342 Z M 117 82 " clip-rule="nonzero"/></clipPath><clipPath id="080ce481ca"><path d="M 20.808594 118.457031 L 282.660156 8.71875 L 409.484375 311.335938 L 147.628906 421.078125 Z M 20.808594 118.457031 " clip-rule="nonzero"/></clipPath><clipPath id="e897a4878e"><path d="M 20.808594 118.457031 L 282.660156 8.71875 L 409.484375 311.335938 L 147.628906 421.078125 Z M 20.808594 118.457031 " clip-rule="nonzero"/></clipPath><clipPath id="71e639ab5f"><rect x="0" width="573" y="0" height="274"/></clipPath></defs><g clip-path="url(#10e420560b)"><g clip-path="url(#4bbc016215)"><g transform="matrix(1, 0, 0, 1, 0.000000000000000111, 0)"><g clip-path="url(#98a6840ad0)"><g clip-path="url(#829e549c75)"><g clip-path="url(#7c190a317a)"><path fill="#39fe14" d="M 0.371094 0 L 429.894531 0 L 429.894531 429.519531 L 0.371094 429.519531 Z M 0.371094 0 " fill-opacity="1" fill-rule="nonzero"/></g></g></g></g></g></g><g clip-path="url(#01766421b2)"><g clip-path="url(#78c476841e)"><path stroke-linecap="butt" transform="matrix(0.74913, 0, 0, 0.74913, 0.372406, -0.000000000000085166)" fill="none" stroke-linejoin="miter" d="M 286.669376 0.000000000000113687 C 128.345068 0.000000000000113687 -0.00175166 128.34682 -0.00175166 286.671127 C -0.00175166 444.995435 128.345068 573.342255 286.669376 573.342255 C 444.998897 573.342255 573.345717 444.995435 573.345717 286.671127 C 573.345717 128.34682 444.998897 0.000000000000113687 286.669376 0.000000000000113687 Z M 286.669376 0.000000000000113687 " stroke="#000000" stroke-width="30" stroke-opacity="1" stroke-miterlimit="4"/></g></g><g clip-path="url(#8106f47463)"><g clip-path="url(#84f738e27f)"><g clip-path="url(#217c8b7906)"><path fill="#39fe14" d="M 146.375 65.898438 L 299.515625 54.277344 L 331.152344 124.183594 L 322.925781 203.769531 L 347.476562 281.914062 L 290.878906 360.683594 L 133.664062 387.75 L 64.859375 164.515625 Z M 146.375 65.898438 " fill-opacity="1" fill-rule="nonzero"/></g></g></g><g clip-path="url(#d4763b6718)"><g clip-path="url(#010bf01a8e)"><g clip-path="url(#ab2499b372)"><path fill="#010100" d="M 311.335938 265.0625 C 297.433594 326.59375 262.011719 344.246094 216.832031 346.476562 C 151.308594 349.714844 114.113281 303.5 110.054688 221.421875 C 106.085938 141.070312 143.839844 93.574219 207.292969 90.4375 C 257.300781 87.964844 288.410156 108.898438 302.742188 161.082031 L 259.007812 171.542969 C 248.785156 139.550781 231.996094 128.625 208.546875 129.785156 C 174.40625 131.472656 154.902344 163.550781 157.644531 219.070312 C 160.664062 280.109375 180.371094 308.175781 216.238281 306.402344 C 240.03125 305.226562 258.367188 291.53125 265.648438 256.949219 L 311.339844 265.0625 Z M 311.335938 265.0625 " fill-opacity="1" fill-rule="nonzero"/></g></g></g><g clip-path="url(#f5ba6d43e4)"><g clip-path="url(#080ce481ca)"><g clip-path="url(#e897a4878e)"><path fill="#010100" d="M 267.902344 332.421875 C 255.992188 337.414062 242.109375 340.222656 226.058594 341.015625 C 160.550781 344.25 122.171875 299.425781 117.992188 214.792969 C 114.058594 135.207031 150.851562 85.753906 216.394531 82.519531 C 268.253906 79.957031 298.980469 102.691406 313.089844 154.066406 C 313.179688 154.390625 313.132812 154.730469 312.960938 155.015625 C 312.796875 155.304688 312.519531 155.511719 312.191406 155.585938 L 268.457031 166.042969 C 267.832031 166.195312 267.195312 165.835938 267 165.222656 C 257.574219 135.71875 242.390625 123.105469 217.769531 124.320312 C 201.300781 125.136719 188.066406 133.382812 179.488281 148.164062 C 170.671875 163.363281 166.710938 185.546875 168.035156 212.320312 C 169.515625 242.292969 175.15625 264.699219 184.796875 278.914062 C 194.332031 292.964844 207.59375 299.367188 225.339844 298.492188 C 251.21875 297.210938 267.011719 281.355469 273.609375 250.007812 C 273.746094 249.359375 274.371094 248.9375 275.027344 249.050781 L 320.714844 257.164062 C 321.042969 257.222656 321.335938 257.414062 321.519531 257.695312 C 321.707031 257.976562 321.769531 258.316406 321.695312 258.644531 C 313.082031 296.773438 295.976562 320.65625 267.902344 332.421875 Z M 179.785156 92.914062 C 139.089844 109.96875 117.40625 153.121094 120.445312 214.671875 C 124.546875 297.71875 162.011719 341.71875 225.9375 338.5625 C 278.109375 335.988281 306.863281 311.539062 319.015625 259.355469 L 275.765625 251.675781 C 268.832031 283.058594 251.914062 299.632812 225.460938 300.941406 C 207.046875 301.851562 192.683594 294.90625 182.769531 280.296875 C 172.867188 265.703125 167.089844 242.875 165.585938 212.445312 C 164.238281 185.195312 168.3125 162.542969 177.367188 146.9375 C 186.382812 131.394531 200.316406 122.730469 217.652344 121.871094 C 242.917969 120.625 259.253906 133.828125 268.992188 163.394531 L 310.382812 153.496094 C 296.480469 104.277344 266.621094 82.5 216.523438 84.976562 C 202.988281 85.644531 190.703125 88.339844 179.789062 92.914062 Z M 179.785156 92.914062 " fill-opacity="1" fill-rule="nonzero"/></g></g></g><g transform="matrix(1, 0, 0, 1, 446, 77)"><g clip-path="url(#71e639ab5f)"><g fill="#000000" fill-opacity="0.302"><g transform="translate(6.007094, 220.959443)"><g><path d="M 12.59375 0 L 12.59375 -161 L 46.328125 -161 L 46.328125 0 Z M 12.59375 0 "/></g></g></g><g fill="#000000" fill-opacity="0.302"><g transform="translate(63.795499, 220.959443)"><g><path d="M 78.703125 -9.890625 L 76.453125 -9.890625 C 72.859375 -5.992188 68.773438 -2.769531 64.203125 -0.21875 C 59.628906 2.320312 53.742188 3.59375 46.546875 3.59375 C 40.992188 3.59375 35.78125 2.691406 30.90625 0.890625 C 26.039062 -0.898438 21.769531 -3.441406 18.09375 -6.734375 C 14.425781 -10.035156 11.539062 -14.007812 9.4375 -18.65625 C 7.34375 -23.3125 6.296875 -28.484375 6.296875 -34.171875 C 6.296875 -39.722656 7.421875 -44.785156 9.671875 -49.359375 C 11.921875 -53.929688 14.992188 -57.863281 18.890625 -61.15625 C 22.785156 -64.457031 27.394531 -67.003906 32.71875 -68.796875 C 38.039062 -70.597656 43.847656 -71.5 50.140625 -71.5 C 56.890625 -71.5 62.472656 -71.050781 66.890625 -70.15625 C 71.316406 -69.257812 75.253906 -68.210938 78.703125 -67.015625 L 78.703125 -69.9375 C 78.703125 -74.726562 76.710938 -78.8125 72.734375 -82.1875 C 68.765625 -85.5625 63.410156 -87.25 56.671875 -87.25 C 46.921875 -87.25 38.523438 -83.273438 31.484375 -75.328125 L 8.546875 -91.515625 C 14.835938 -99.015625 22.144531 -104.597656 30.46875 -108.265625 C 38.789062 -111.941406 47.972656 -113.78125 58.015625 -113.78125 C 76.003906 -113.78125 89.570312 -109.769531 98.71875 -101.75 C 107.863281 -93.726562 112.4375 -81.546875 112.4375 -65.203125 L 112.4375 0 L 78.703125 0 Z M 78.703125 -43.390625 C 75.253906 -44.742188 71.84375 -45.796875 68.46875 -46.546875 C 65.09375 -47.296875 61.609375 -47.671875 58.015625 -47.671875 C 52.015625 -47.671875 47.515625 -46.429688 44.515625 -43.953125 C 41.523438 -41.484375 40.03125 -38.300781 40.03125 -34.40625 C 40.03125 -30.507812 41.453125 -27.398438 44.296875 -25.078125 C 47.140625 -22.753906 50.890625 -21.59375 55.546875 -21.59375 C 59.285156 -21.59375 62.617188 -22.226562 65.546875 -23.5 C 68.472656 -24.769531 70.910156 -26.453125 72.859375 -28.546875 C 74.804688 -30.648438 76.265625 -33.015625 77.234375 -35.640625 C 78.210938 -38.265625 78.703125 -40.847656 78.703125 -43.390625 Z M 78.703125 -43.390625 "/></g></g></g><g fill="#000000" fill-opacity="0.302"><g transform="translate(187.01747, 220.959443)"><g><path d="M 12.59375 -110.1875 L 44.078125 -110.1875 L 44.078125 -96.234375 L 46.328125 -96.234375 C 49.316406 -101.035156 53.582031 -105.082031 59.125 -108.375 C 64.675781 -111.675781 70.828125 -113.328125 77.578125 -113.328125 C 81.617188 -113.328125 85.140625 -112.835938 88.140625 -111.859375 C 91.140625 -110.890625 93.613281 -109.804688 95.5625 -108.609375 L 86.796875 -78.921875 C 84.847656 -79.972656 82.785156 -80.796875 80.609375 -81.390625 C 78.441406 -81.992188 75.632812 -82.296875 72.1875 -82.296875 C 63.789062 -82.296875 57.378906 -79.375 52.953125 -73.53125 C 48.535156 -67.6875 46.328125 -60.039062 46.328125 -50.59375 L 46.328125 0 L 12.59375 0 Z M 12.59375 -110.1875 "/></g></g></g><g fill="#000000" fill-opacity="0.302"><g transform="translate(283.481387, 220.959443)"><g><path d="M 31.25 -122.328125 C 28.257812 -122.328125 25.488281 -122.890625 22.9375 -124.015625 C 20.382812 -125.140625 18.171875 -126.632812 16.296875 -128.5 C 14.421875 -130.375 12.921875 -132.585938 11.796875 -135.140625 C 10.679688 -137.691406 10.125 -140.460938 10.125 -143.453125 C 10.125 -146.304688 10.679688 -149.046875 11.796875 -151.671875 C 12.921875 -154.296875 14.421875 -156.539062 16.296875 -158.40625 C 18.171875 -160.28125 20.382812 -161.78125 22.9375 -162.90625 C 25.488281 -164.03125 28.257812 -164.59375 31.25 -164.59375 C 34.101562 -164.59375 36.835938 -164.03125 39.453125 -162.90625 C 42.078125 -161.78125 44.328125 -160.28125 46.203125 -158.40625 C 48.078125 -156.539062 49.578125 -154.296875 50.703125 -151.671875 C 51.828125 -149.046875 52.390625 -146.304688 52.390625 -143.453125 C 52.390625 -140.460938 51.828125 -137.691406 50.703125 -135.140625 C 49.578125 -132.585938 48.078125 -130.375 46.203125 -128.5 C 44.328125 -126.632812 42.078125 -125.140625 39.453125 -124.015625 C 36.835938 -122.890625 34.101562 -122.328125 31.25 -122.328125 Z M 14.390625 0 L 14.390625 -110.1875 L 48.125 -110.1875 L 48.125 0 Z M 14.390625 0 "/></g></g></g><g fill="#000000" fill-opacity="0.302"><g transform="translate(344.867509, 220.959443)"><g><path d="M 24.734375 -81.84375 L 5.390625 -81.84375 L 5.390625 -110.1875 L 24.734375 -110.1875 L 24.734375 -143.90625 L 58.46875 -143.90625 L 58.46875 -110.1875 L 85.671875 -110.1875 L 85.671875 -81.84375 L 58.46875 -81.84375 L 58.46875 -44.75 C 58.46875 -42.351562 58.765625 -40.140625 59.359375 -38.109375 C 59.960938 -36.085938 61.015625 -34.398438 62.515625 -33.046875 C 64.765625 -31.097656 67.6875 -30.125 71.28125 -30.125 C 73.675781 -30.125 75.695312 -30.425781 77.34375 -31.03125 C 79 -31.632812 80.425781 -32.382812 81.625 -33.28125 L 91.0625 -4.046875 C 87.164062 -2.242188 82.96875 -0.820312 78.46875 0.21875 C 73.976562 1.269531 69.179688 1.796875 64.078125 1.796875 C 52.242188 1.796875 42.878906 -1.648438 35.984375 -8.546875 C 32.378906 -12.140625 29.601562 -16.597656 27.65625 -21.921875 C 25.707031 -27.242188 24.734375 -33.128906 24.734375 -39.578125 Z M 24.734375 -81.84375 "/></g></g></g><g fill="#000000" fill-opacity="0.302"><g transform="translate(441.556298, 220.959443)"><g><path d="M 47.671875 -4.71875 L 0.90625 -110.1875 L 39.796875 -110.1875 L 65.203125 -49.46875 L 67.453125 -49.46875 L 91.75 -110.1875 L 129.75 -110.1875 L 60.71875 48.5625 L 23.828125 48.5625 Z M 47.671875 -4.71875 "/></g></g></g><g fill="#000000" fill-opacity="0.502"><g transform="translate(3.127773, 218.709855)"><g><path d="M 12.59375 0 L 12.59375 -161 L 46.328125 -161 L 46.328125 0 Z M 12.59375 0 "/></g></g></g><g fill="#000000" fill-opacity="0.502"><g transform="translate(60.916178, 218.709855)"><g><path d="M 78.703125 -9.890625 L 76.453125 -9.890625 C 72.859375 -5.992188 68.773438 -2.769531 64.203125 -0.21875 C 59.628906 2.320312 53.742188 3.59375 46.546875 3.59375 C 40.992188 3.59375 35.78125 2.691406 30.90625 0.890625 C 26.039062 -0.898438 21.769531 -3.441406 18.09375 -6.734375 C 14.425781 -10.035156 11.539062 -14.007812 9.4375 -18.65625 C 7.34375 -23.3125 6.296875 -28.484375 6.296875 -34.171875 C 6.296875 -39.722656 7.421875 -44.785156 9.671875 -49.359375 C 11.921875 -53.929688 14.992188 -57.863281 18.890625 -61.15625 C 22.785156 -64.457031 27.394531 -67.003906 32.71875 -68.796875 C 38.039062 -70.597656 43.847656 -71.5 50.140625 -71.5 C 56.890625 -71.5 62.472656 -71.050781 66.890625 -70.15625 C 71.316406 -69.257812 75.253906 -68.210938 78.703125 -67.015625 L 78.703125 -69.9375 C 78.703125 -74.726562 76.710938 -78.8125 72.734375 -82.1875 C 68.765625 -85.5625 63.410156 -87.25 56.671875 -87.25 C 46.921875 -87.25 38.523438 -83.273438 31.484375 -75.328125 L 8.546875 -91.515625 C 14.835938 -99.015625 22.144531 -104.597656 30.46875 -108.265625 C 38.789062 -111.941406 47.972656 -113.78125 58.015625 -113.78125 C 76.003906 -113.78125 89.570312 -109.769531 98.71875 -101.75 C 107.863281 -93.726562 112.4375 -81.546875 112.4375 -65.203125 L 112.4375 0 L 78.703125 0 Z M 78.703125 -43.390625 C 75.253906 -44.742188 71.84375 -45.796875 68.46875 -46.546875 C 65.09375 -47.296875 61.609375 -47.671875 58.015625 -47.671875 C 52.015625 -47.671875 47.515625 -46.429688 44.515625 -43.953125 C 41.523438 -41.484375 40.03125 -38.300781 40.03125 -34.40625 C 40.03125 -30.507812 41.453125 -27.398438 44.296875 -25.078125 C 47.140625 -22.753906 50.890625 -21.59375 55.546875 -21.59375 C 59.285156 -21.59375 62.617188 -22.226562 65.546875 -23.5 C 68.472656 -24.769531 70.910156 -26.453125 72.859375 -28.546875 C 74.804688 -30.648438 76.265625 -33.015625 77.234375 -35.640625 C 78.210938 -38.265625 78.703125 -40.847656 78.703125 -43.390625 Z M 78.703125 -43.390625 "/></g></g></g><g fill="#000000" fill-opacity="0.502"><g transform="translate(184.138148, 218.709855)"><g><path d="M 12.59375 -110.1875 L 44.078125 -110.1875 L 44.078125 -96.234375 L 46.328125 -96.234375 C 49.316406 -101.035156 53.582031 -105.082031 59.125 -108.375 C 64.675781 -111.675781 70.828125 -113.328125 77.578125 -113.328125 C 81.617188 -113.328125 85.140625 -112.835938 88.140625 -111.859375 C 91.140625 -110.890625 93.613281 -109.804688 95.5625 -108.609375 L 86.796875 -78.921875 C 84.847656 -79.972656 82.785156 -80.796875 80.609375 -81.390625 C 78.441406 -81.992188 75.632812 -82.296875 72.1875 -82.296875 C 63.789062 -82.296875 57.378906 -79.375 52.953125 -73.53125 C 48.535156 -67.6875 46.328125 -60.039062 46.328125 -50.59375 L 46.328125 0 L 12.59375 0 Z M 12.59375 -110.1875 "/></g></g></g><g fill="#000000" fill-opacity="0.502"><g transform="translate(280.602065, 218.709855)"><g><path d="M 31.25 -122.328125 C 28.257812 -122.328125 25.488281 -122.890625 22.9375 -124.015625 C 20.382812 -125.140625 18.171875 -126.632812 16.296875 -128.5 C 14.421875 -130.375 12.921875 -132.585938 11.796875 -135.140625 C 10.679688 -137.691406 10.125 -140.460938 10.125 -143.453125 C 10.125 -146.304688 10.679688 -149.046875 11.796875 -151.671875 C 12.921875 -154.296875 14.421875 -156.539062 16.296875 -158.40625 C 18.171875 -160.28125 20.382812 -161.78125 22.9375 -162.90625 C 25.488281 -164.03125 28.257812 -164.59375 31.25 -164.59375 C 34.101562 -164.59375 36.835938 -164.03125 39.453125 -162.90625 C 42.078125 -161.78125 44.328125 -160.28125 46.203125 -158.40625 C 48.078125 -156.539062 49.578125 -154.296875 50.703125 -151.671875 C 51.828125 -149.046875 52.390625 -146.304688 52.390625 -143.453125 C 52.390625 -140.460938 51.828125 -137.691406 50.703125 -135.140625 C 49.578125 -132.585938 48.078125 -130.375 46.203125 -128.5 C 44.328125 -126.632812 42.078125 -125.140625 39.453125 -124.015625 C 36.835938 -122.890625 34.101562 -122.328125 31.25 -122.328125 Z M 14.390625 0 L 14.390625 -110.1875 L 48.125 -110.1875 L 48.125 0 Z M 14.390625 0 "/></g></g></g><g fill="#000000" fill-opacity="0.502"><g transform="translate(341.988188, 218.709855)"><g><path d="M 24.734375 -81.84375 L 5.390625 -81.84375 L 5.390625 -110.1875 L 24.734375 -110.1875 L 24.734375 -143.90625 L 58.46875 -143.90625 L 58.46875 -110.1875 L 85.671875 -110.1875 L 85.671875 -81.84375 L 58.46875 -81.84375 L 58.46875 -44.75 C 58.46875 -42.351562 58.765625 -40.140625 59.359375 -38.109375 C 59.960938 -36.085938 61.015625 -34.398438 62.515625 -33.046875 C 64.765625 -31.097656 67.6875 -30.125 71.28125 -30.125 C 73.675781 -30.125 75.695312 -30.425781 77.34375 -31.03125 C 79 -31.632812 80.425781 -32.382812 81.625 -33.28125 L 91.0625 -4.046875 C 87.164062 -2.242188 82.96875 -0.820312 78.46875 0.21875 C 73.976562 1.269531 69.179688 1.796875 64.078125 1.796875 C 52.242188 1.796875 42.878906 -1.648438 35.984375 -8.546875 C 32.378906 -12.140625 29.601562 -16.597656 27.65625 -21.921875 C 25.707031 -27.242188 24.734375 -33.128906 24.734375 -39.578125 Z M 24.734375 -81.84375 "/></g></g></g><g fill="#000000" fill-opacity="0.502"><g transform="translate(438.676977, 218.709855)"><g><path d="M 47.671875 -4.71875 L 0.90625 -110.1875 L 39.796875 -110.1875 L 65.203125 -49.46875 L 67.453125 -49.46875 L 91.75 -110.1875 L 129.75 -110.1875 L 60.71875 48.5625 L 23.828125 48.5625 Z M 47.671875 -4.71875 "/></g></g></g><g fill="#ffffff" fill-opacity="1"><g transform="translate(0.248422, 216.460267)"><g><path d="M 12.59375 0 L 12.59375 -161 L 46.328125 -161 L 46.328125 0 Z M 12.59375 0 "/></g></g></g><g fill="#ffffff" fill-opacity="1"><g transform="translate(58.036827, 216.460267)"><g><path d="M 78.703125 -9.890625 L 76.453125 -9.890625 C 72.859375 -5.992188 68.773438 -2.769531 64.203125 -0.21875 C 59.628906 2.320312 53.742188 3.59375 46.546875 3.59375 C 40.992188 3.59375 35.78125 2.691406 30.90625 0.890625 C 26.039062 -0.898438 21.769531 -3.441406 18.09375 -6.734375 C 14.425781 -10.035156 11.539062 -14.007812 9.4375 -18.65625 C 7.34375 -23.3125 6.296875 -28.484375 6.296875 -34.171875 C 6.296875 -39.722656 7.421875 -44.785156 9.671875 -49.359375 C 11.921875 -53.929688 14.992188 -57.863281 18.890625 -61.15625 C 22.785156 -64.457031 27.394531 -67.003906 32.71875 -68.796875 C 38.039062 -70.597656 43.847656 -71.5 50.140625 -71.5 C 56.890625 -71.5 62.472656 -71.050781 66.890625 -70.15625 C 71.316406 -69.257812 75.253906 -68.210938 78.703125 -67.015625 L 78.703125 -69.9375 C 78.703125 -74.726562 76.710938 -78.8125 72.734375 -82.1875 C 68.765625 -85.5625 63.410156 -87.25 56.671875 -87.25 C 46.921875 -87.25 38.523438 -83.273438 31.484375 -75.328125 L 8.546875 -91.515625 C 14.835938 -99.015625 22.144531 -104.597656 30.46875 -108.265625 C 38.789062 -111.941406 47.972656 -113.78125 58.015625 -113.78125 C 76.003906 -113.78125 89.570312 -109.769531 98.71875 -101.75 C 107.863281 -93.726562 112.4375 -81.546875 112.4375 -65.203125 L 112.4375 0 L 78.703125 0 Z M 78.703125 -43.390625 C 75.253906 -44.742188 71.84375 -45.796875 68.46875 -46.546875 C 65.09375 -47.296875 61.609375 -47.671875 58.015625 -47.671875 C 52.015625 -47.671875 47.515625 -46.429688 44.515625 -43.953125 C 41.523438 -41.484375 40.03125 -38.300781 40.03125 -34.40625 C 40.03125 -30.507812 41.453125 -27.398438 44.296875 -25.078125 C 47.140625 -22.753906 50.890625 -21.59375 55.546875 -21.59375 C 59.285156 -21.59375 62.617188 -22.226562 65.546875 -23.5 C 68.472656 -24.769531 70.910156 -26.453125 72.859375 -28.546875 C 74.804688 -30.648438 76.265625 -33.015625 77.234375 -35.640625 C 78.210938 -38.265625 78.703125 -40.847656 78.703125 -43.390625 Z M 78.703125 -43.390625 "/></g></g></g><g fill="#ffffff" fill-opacity="1"><g transform="translate(181.258797, 216.460267)"><g><path d="M 12.59375 -110.1875 L 44.078125 -110.1875 L 44.078125 -96.234375 L 46.328125 -96.234375 C 49.316406 -101.035156 53.582031 -105.082031 59.125 -108.375 C 64.675781 -111.675781 70.828125 -113.328125 77.578125 -113.328125 C 81.617188 -113.328125 85.140625 -112.835938 88.140625 -111.859375 C 91.140625 -110.890625 93.613281 -109.804688 95.5625 -108.609375 L 86.796875 -78.921875 C 84.847656 -79.972656 82.785156 -80.796875 80.609375 -81.390625 C 78.441406 -81.992188 75.632812 -82.296875 72.1875 -82.296875 C 63.789062 -82.296875 57.378906 -79.375 52.953125 -73.53125 C 48.535156 -67.6875 46.328125 -60.039062 46.328125 -50.59375 L 46.328125 0 L 12.59375 0 Z M 12.59375 -110.1875 "/></g></g></g><g fill="#ffffff" fill-opacity="1"><g transform="translate(277.722714, 216.460267)"><g><path d="M 31.25 -122.328125 C 28.257812 -122.328125 25.488281 -122.890625 22.9375 -124.015625 C 20.382812 -125.140625 18.171875 -126.632812 16.296875 -128.5 C 14.421875 -130.375 12.921875 -132.585938 11.796875 -135.140625 C 10.679688 -137.691406 10.125 -140.460938 10.125 -143.453125 C 10.125 -146.304688 10.679688 -149.046875 11.796875 -151.671875 C 12.921875 -154.296875 14.421875 -156.539062 16.296875 -158.40625 C 18.171875 -160.28125 20.382812 -161.78125 22.9375 -162.90625 C 25.488281 -164.03125 28.257812 -164.59375 31.25 -164.59375 C 34.101562 -164.59375 36.835938 -164.03125 39.453125 -162.90625 C 42.078125 -161.78125 44.328125 -160.28125 46.203125 -158.40625 C 48.078125 -156.539062 49.578125 -154.296875 50.703125 -151.671875 C 51.828125 -149.046875 52.390625 -146.304688 52.390625 -143.453125 C 52.390625 -140.460938 51.828125 -137.691406 50.703125 -135.140625 C 49.578125 -132.585938 48.078125 -130.375 46.203125 -128.5 C 44.328125 -126.632812 42.078125 -125.140625 39.453125 -124.015625 C 36.835938 -122.890625 34.101562 -122.328125 31.25 -122.328125 Z M 14.390625 0 L 14.390625 -110.1875 L 48.125 -110.1875 L 48.125 0 Z M 14.390625 0 "/></g></g></g><g fill="#ffffff" fill-opacity="1"><g transform="translate(339.108837, 216.460267)"><g><path d="M 24.734375 -81.84375 L 5.390625 -81.84375 L 5.390625 -110.1875 L 24.734375 -110.1875 L 24.734375 -143.90625 L 58.46875 -143.90625 L 58.46875 -110.1875 L 85.671875 -110.1875 L 85.671875 -81.84375 L 58.46875 -81.84375 L 58.46875 -44.75 C 58.46875 -42.351562 58.765625 -40.140625 59.359375 -38.109375 C 59.960938 -36.085938 61.015625 -34.398438 62.515625 -33.046875 C 64.765625 -31.097656 67.6875 -30.125 71.28125 -30.125 C 73.675781 -30.125 75.695312 -30.425781 77.34375 -31.03125 C 79 -31.632812 80.425781 -32.382812 81.625 -33.28125 L 91.0625 -4.046875 C 87.164062 -2.242188 82.96875 -0.820312 78.46875 0.21875 C 73.976562 1.269531 69.179688 1.796875 64.078125 1.796875 C 52.242188 1.796875 42.878906 -1.648438 35.984375 -8.546875 C 32.378906 -12.140625 29.601562 -16.597656 27.65625 -21.921875 C 25.707031 -27.242188 24.734375 -33.128906 24.734375 -39.578125 Z M 24.734375 -81.84375 "/></g></g></g><g fill="#ffffff" fill-opacity="1"><g transform="translate(435.797626, 216.460267)"><g><path d="M 47.671875 -4.71875 L 0.90625 -110.1875 L 39.796875 -110.1875 L 65.203125 -49.46875 L 67.453125 -49.46875 L 91.75 -110.1875 L 129.75 -110.1875 L 60.71875 48.5625 L 23.828125 48.5625 Z M 47.671875 -4.71875 "/></g></g></g></g></g></svg>